<svg xmlns="http://www.w3.org/2000/svg" width="149.167" height="172.243" xml:space="preserve"><path fill="#585858" d="m149.167 129.183-74.584 43.06L0 129.183V43.061L74.583 0l74.584 43.061z"/><path fill="#FFF" d="m41.88 84.75 25.09 26.783L54.889 84.75H41.88zm32.703 31.091L88.64 84.75H60.527l14.056 31.091zM55.009 79.594l8.217-15.466H52.673l-11.6 15.466h13.936zm27.187 31.939 25.091-26.783h-13.01l-12.081 26.783zM60.849 79.594h27.469l-8.217-15.466H69.065l-8.216 15.466zm33.308 0h13.936L96.494 64.128H85.942l8.215 15.466zm5.678-19.574 15.467 20.621c.376.483.55 1.04.523 1.671a2.467 2.467 0 0 1-.686 1.632l-38.664 41.243c-.483.536-1.113.804-1.893.804-.778 0-1.408-.268-1.892-.804L34.026 83.944c-.429-.457-.658-1-.685-1.632a2.463 2.463 0 0 1 .523-1.671L49.331 60.02c.484-.699 1.168-1.047 2.054-1.047h46.398c.884 0 1.57.349 2.052 1.047z"/></svg>