<?xml version="1.0" encoding="UTF-8" standalone="no"?>
<svg
   xmlns:dc="http://purl.org/dc/elements/1.1/"
   xmlns:cc="http://creativecommons.org/ns#"
   xmlns:rdf="http://www.w3.org/1999/02/22-rdf-syntax-ns#"
   xmlns:svg="http://www.w3.org/2000/svg"
   xmlns="http://www.w3.org/2000/svg"
   id="svg5022"
   version="1.1"
   viewBox="0 0 59.999999 60.000003"
   height="60mm"
   width="60mm">
  <defs
     id="defs5016" />
  <metadata
     id="metadata5019">
    <rdf:RDF>
      <cc:Work
         rdf:about="">
        <dc:format>image/svg+xml</dc:format>
        <dc:type
           rdf:resource="http://purl.org/dc/dcmitype/StillImage" />
        <dc:title></dc:title>
      </cc:Work>
    </rdf:RDF>
  </metadata>
  <g
     transform="translate(0,-236.99998)"
     id="layer1">
    <g
       transform="translate(0.1889881,-0.1889881)"
       id="g5699">
      <g
         id="g1405"
         transform="matrix(0.93987453,0,0,0.93987453,-719.19823,174.63712)">
        <path
           id="path6697-1"
           d="m 786.82001,68.627151 c -1.02173,0.17344 -1.64169,1.22843 -1.91405,2.15269 -0.33977,1.37529 -0.4322,2.80019 -0.79582,4.1714 -0.18395,1.43541 0.61038,2.78667 1.07118,4.05623 0.33015,0.48352 0.99565,0.68067 1.4235,0.95343 -2.93359,2.32142 -5.21601,5.40638 -6.76342,8.80219 -1.15369,2.50437 -2.52493,4.93044 -3.36165,7.56687 -1.00822,4.017579 -1.51948,8.144319 -1.85999,12.265959 -0.0692,2.23252 1.17056,4.2526 2.57847,5.88723 -1.41034,1.89634 -2.43878,4.1518 -2.67757,6.51788 0.19767,1.8237 1.91305,3.18088 3.66515,3.42135 1.78485,0.31307 3.56307,-0.40272 4.97551,-1.45783 0.37707,-0.25675 0.72352,-0.55557 1.0638,-0.85857 -0.60426,2.85155 -1.77925,5.7021 -1.35134,8.66725 0.2492,0.77362 -0.18407,1.51492 -0.26609,2.28401 -0.09,0.68103 -0.61023,1.69732 0.21294,2.1262 0.98143,0.27714 2.02994,-0.0186 3.03575,0.0198 8.18765,-0.35879 16.38242,-0.59533 24.56556,-1.03244 0.73306,-0.16953 0.7992,-1.08577 0.31268,-1.55264 -0.73497,-1.08268 -1.65951,-2.05105 -2.35353,-3.14733 0.0801,-1.24217 -0.97244,-2.14776 -1.59662,-3.10704 -0.53052,-0.70108 -1.08057,-1.43833 -1.17121,-2.34095 -0.21247,-0.77454 -0.4902,-1.52867 -0.75429,-2.28649 1.58904,1.09248 3.63665,2.15259 5.5936,1.42423 0.72488,-0.33644 1.5497,-0.84589 1.77978,-1.64083 0.0576,-1.88823 -0.10201,-3.79338 0.0968,-5.67249 0.61542,-1.87233 1.9473,-3.40444 2.63373,-5.25072 1.87996,-4.45811 2.67532,-9.35087 2.44786,-14.176029 -0.0856,-1.93402 -1.05392,-3.66257 -1.51251,-5.51351 -0.90446,-2.93026 -1.75615,-5.9101 -3.15438,-8.65126 -1.36073,-2.21634 -3.61233,-3.67231 -5.78056,-5.00487 -2.28612,-1.08845 -4.89263,-1.03019 -7.3567,-1.32236 -1.95984,-0.18177 -4.00842,-0.43879 -5.88857,0.3201 -1.5773,0.46651 -3.14383,1.29362 -4.84056,1.11078 -1.19055,-0.15026 -1.68415,-1.48852 -1.56746,-2.54838 -0.04,-1.32225 0.55303,-2.53251 1.19797,-3.64411 0.51539,-1.07378 -0.24059,-2.51607 -1.4761,-2.53455 -0.0704,-0.007 -0.14124,-0.009 -0.21187,-0.005 z m 9.4029,10.3017 c 1.66348,0.13954 3.3087,0.47771 4.98251,0.53296 1.11471,0.10271 2.26559,0.0726 3.35812,0.2367 1.55352,1.00995 3.29943,1.8375 4.54489,3.2635 0.98842,1.43942 1.93924,2.93449 2.42603,4.62858 0.84615,2.55223 1.86345,5.0586 2.42448,7.69794 0.38612,1.91545 0.53439,3.87694 0.20511,5.848819 -0.33897,2.8431 -0.82061,5.7413 -1.97627,8.40745 -0.42932,0.9254 -0.75062,1.93467 -1.3947,2.73768 -0.20532,-0.80488 -0.18269,-2.02994 -1.19022,-2.26214 -1.0087,-0.16158 -1.45294,0.98694 -1.5621,1.79612 -0.15042,0.95381 -0.16731,2.02809 0.42541,2.84535 -0.64832,1.11835 -1.99375,1.48824 -3.05622,2.09368 -0.43158,0.161 -0.8972,0.60786 -1.32521,0.19281 -0.63521,-0.37902 -1.58301,-0.98701 -2.22264,-0.28422 -0.36017,0.25622 -0.0199,0.90337 -0.49867,0.96414 -2.04671,0.57398 -4.20903,0.45265 -6.30594,0.70722 -1.23212,0.0983 -2.4876,0.46536 -3.70065,0.0273 -1.86221,-0.54427 -3.68648,-1.2177 -5.51683,-1.85924 -1.42641,-0.56861 -2.7777,-1.38086 -3.95085,-2.34888 0.56213,-0.79482 0.0501,-1.92848 -0.87518,-2.12686 -0.56261,-0.19211 -1.19714,-0.14887 -1.74906,-0.0173 -1.12688,-1.21118 -1.78269,-2.87509 -1.74002,-4.50342 -0.0914,-1.76856 0.55281,-3.53257 0.8297,-5.28398 0.55029,-2.419149 0.87357,-4.925649 1.8501,-7.223009 1.7421,-3.13273 2.92484,-6.52351 5.00486,-9.45125 2.18356,-2.85375 5.20955,-5.07215 8.65107,-6.14746 0.7616,-0.25747 1.54879,-0.49804 2.36228,-0.47247 z m -16.70736,37.686509 c 1.19468,0.83417 2.54386,1.43169 3.68785,2.33928 -1.13177,0.88442 -2.20622,1.97051 -3.60849,2.40111 -0.67933,0.21095 -1.45713,-0.0234 -1.7808,-0.68951 -0.31876,-0.95041 0.24129,-1.95669 0.68249,-2.77982 0.2779,-0.46602 0.59907,-0.90545 0.9479,-1.32071 z m 29.69107,1.81624 c -0.0313,0.63511 0.11187,1.37062 -0.19268,1.94507 -0.66624,-0.1794 -1.46148,-0.62066 -1.94599,-0.97558 0.77538,-0.25925 1.46025,-0.71967 2.13239,-1.17398 0.002,0.0682 0.004,0.13633 0.006,0.20449 z m -21.14489,2.5076 c 3.17361,0.45459 6.42745,0.85702 9.60443,0.19693 1.14332,-0.14063 2.46316,-0.42396 3.56254,0.11977 0.93545,0.61692 0.66861,1.8814 1.08723,2.78869 0.84646,2.35736 1.94394,4.79621 3.96691,6.3765 0.78254,0.2571 1.22485,0.98904 1.74094,1.58736 0.57987,0.50141 0.23194,0.59002 -0.40372,0.53834 -7.76026,0.32908 -15.52271,0.60626 -23.28236,0.94978 0.12682,-0.44418 0.14384,-1.00541 0.37152,-1.36776 0.99924,-0.4397 0.98191,-1.72348 1.15008,-2.64577 0.21815,-2.17263 0.51023,-4.37977 1.23561,-6.43216 0.23338,-0.72008 0.49772,-1.42964 0.77174,-2.13512 0.065,0.008 0.13005,0.0156 0.19508,0.0234 z"
           style="display:inline;opacity:1;fill:#ffffff;fill-opacity:1;stroke:none;stroke-width:0.09464285;stroke-linecap:round;stroke-linejoin:round;stroke-miterlimit:4;stroke-dasharray:none;stroke-dashoffset:0;stroke-opacity:1;paint-order:normal" />
        <path
           id="path6782-7"
           d="m 815.58004,75.153291 c -1.49192,-0.0446 -2.49278,1.93983 -1.49419,3.08914 0.56801,0.81667 1.4725,1.34252 2.06779,2.11689 -0.77236,0.82915 -0.81388,2.31692 0.1709,2.99908 0.57884,0.37762 1.30095,0.36833 1.96426,0.43722 -0.70555,1.26864 0.0968,3.08724 1.55362,3.30618 0.3163,0.0486 0.64191,0.0368 0.95417,-0.0328 0.14551,1.13306 0.27125,2.39905 1.19591,3.19953 0.68887,0.62458 1.28563,1.76262 2.3884,1.52333 1.61559,-0.0558 2.59498,-2.01369 1.91997,-3.41139 0.80751,-0.97713 1.87238,-2.04857 1.80701,-3.41082 -0.10509,-1.10248 -1.3917,-1.58522 -2.34611,-1.27715 -0.59777,0.12072 -1.08998,0.57811 -1.57503,0.8558 -0.76889,-1.1074 0.062,-2.64076 -0.78991,-3.6956 -0.083,-0.27257 -0.79925,-0.23548 -0.57397,-0.47635 0.74361,-1.02446 -0.011,-2.51104 -1.15368,-2.83759 -0.67644,-0.25746 -1.42751,-0.26348 -2.12778,-0.10483 -1.13222,-0.98491 -2.37052,-2.21415 -3.96136,-2.28059 z"
           style="display:inline;opacity:1;fill:#ffffff;fill-opacity:1;stroke:none;stroke-width:0.09464285;stroke-linecap:round;stroke-linejoin:round;stroke-miterlimit:4;stroke-dasharray:none;stroke-dashoffset:0;stroke-opacity:1;paint-order:normal" />
        <path
           id="path6090-3"
           d="m 796.13294,77.950361 c -2.39461,0.0658 -4.62374,1.19066 -6.66268,2.3527 -2.9201,1.84058 -5.34511,4.46527 -6.83281,7.59027 -1.34191,2.71808 -2.85014,5.37355 -3.91905,8.21491 -0.93409,3.34941 -1.53102,6.783779 -2.20674,10.190439 -0.30708,2.48733 0.57585,5.24337 2.51577,6.85374 0.59944,-0.11264 1.68479,-0.56079 2.00296,0.2062 0.003,0.52484 -1.10102,0.9108 -0.24362,1.26851 1.63731,1.28289 3.38671,2.45379 5.39867,3.05638 1.86665,0.6227 3.68411,1.50057 5.63151,1.82648 2.36526,0.10889 4.6989,-0.36529 7.05707,-0.45232 1.23255,-0.1982 2.66492,-0.11459 3.70497,-0.89551 0.26863,-0.20643 -0.26631,-0.97032 0.27875,-0.69036 0.72582,0.27658 1.5298,1.11177 2.33313,0.51157 1.42376,-0.76712 3.15449,-1.2877 4.11345,-2.67165 0.16664,-0.35893 0.45777,-1.0897 -0.0611,-1.26692 -0.36189,-0.9575 -0.34263,-2.14355 0.19262,-3.03628 0.39889,0.80091 0.11653,2.11597 1.07143,2.54663 0.90928,-0.004 1.30449,-1.08824 1.72864,-1.73046 2.15756,-4.1531 3.06116,-8.88212 3.08169,-13.535999 -2.7e-4,-3.92131 -1.72128,-7.52104 -2.86513,-11.19177 -0.9775,-2.68735 -2.47559,-5.4108 -5.0467,-6.86134 -0.9623,-0.51612 -1.82915,-1.34929 -2.87696,-1.61501 -2.71288,-0.0553 -5.3862,-0.46197 -8.08503,-0.66864 -0.10362,-0.002 -0.20723,-0.002 -0.31086,-0.002 z m -5.26396,7.79623 c 0.63251,0.1299 0.20601,0.9944 0.11354,1.38542 -0.34959,0.62394 -0.28582,1.40793 -0.64651,2.00504 -0.15694,0.13955 -0.6668,0.60636 -0.69741,0.15504 -0.0451,-1.24264 0.36648,-2.54227 1.12259,-3.51731 0.0304,-0.024 0.0683,-0.0384 0.10779,-0.0282 z m 13.70618,1.16122 c 0.68887,0.20764 0.31616,1.1816 0.34531,1.69131 -0.12698,0.47725 0.003,1.32641 -0.55829,1.53654 -0.64923,-0.66521 -0.55508,-1.76333 -0.40639,-2.62493 0.0972,-0.26303 0.31145,-0.58965 0.61937,-0.60292 z m -8.76012,7.57516 c 0.55296,0.93761 0.0844,2.06921 0.42152,3.07177 -0.0836,0.5282 -0.89454,0.63765 -1.05655,0.0786 -0.43626,-0.97055 -0.43707,-2.59791 0.63503,-3.15033 z m -11.05124,4.38489 c 1.16596,1.972119 1.2875,4.655679 3.36436,6.021389 2.13202,1.4473 4.53973,2.76737 7.16017,2.93579 1.7679,0.12561 3.56049,-0.052 5.18826,-0.79424 3.07273,-1.17371 5.63427,-3.49236 7.19827,-6.3761 0.32886,-0.38301 0.67315,-1.257779 1.28702,-1.023399 0.79072,0.652219 0.23456,1.806219 0.27849,2.666429 -0.25582,2.7944 -0.92957,5.53704 -1.60649,8.2603 -2.19594,1.63265 -4.59673,2.98865 -7.05732,4.17269 -2.36559,0.7765 -4.87249,1.12635 -7.31729,1.48016 -2.05787,0.0172 -3.99309,-0.8439 -5.89933,-1.53659 -1.35326,-0.45859 -2.57559,-1.3022 -3.27292,-2.57816 -1.39194,-2.25663 -1.29093,-5.01708 -1.25178,-7.57072 0.17553,-1.82413 0.002,-4.01819 1.51696,-5.328689 0.12904,-0.10582 0.26758,-0.27063 0.4116,-0.32886 z"
           style="display:inline;opacity:1;fill:#f9f9f9;fill-opacity:1;stroke:none;stroke-width:0.13384521;stroke-linecap:round;stroke-linejoin:round;stroke-miterlimit:4;stroke-dasharray:none;stroke-dashoffset:0;stroke-opacity:1;paint-order:normal" />
        <path
           id="path6092-8"
           d="m 787.28016,119.8446 c -0.62207,1.04077 -0.93495,2.32351 -1.34561,3.48717 -0.82024,2.39973 -0.85034,4.95924 -1.34536,7.41868 -0.0145,0.48729 -0.62454,0.38462 -0.68122,0.84096 -0.23088,0.90919 -0.4551,1.84897 -0.56795,2.76404 4.60316,-0.13982 9.25513,-0.3897 13.8776,-0.55171 4.18313,-0.17354 8.36774,-0.32032 12.5492,-0.52885 0.33666,-0.31424 -0.35328,-0.72247 -0.47085,-1.02966 -0.89866,-1.09743 -1.72981,-2.28897 -2.89064,-3.11902 -1.81038,-1.75854 -2.80316,-4.18483 -3.42021,-6.58516 -0.0816,-1.25767 -0.99738,-2.44112 -2.30651,-2.54898 -2.23862,-0.30892 -4.42281,0.5878 -6.6606,0.42805 -2.26754,0.0468 -4.48961,-0.34474 -6.73785,-0.57552 z"
           style="display:inline;opacity:1;fill:#f9f9f9;fill-opacity:1;stroke:none;stroke-width:0.13384521;stroke-linecap:round;stroke-linejoin:round;stroke-miterlimit:4;stroke-dasharray:none;stroke-dashoffset:0;stroke-opacity:1;paint-order:normal" />
        <path
           id="path6268-9"
           d="m 784.4534,101.28637 c -0.56513,1.35293 -0.76387,2.82751 -0.67705,4.28584 0.0788,1.34929 0.16821,2.72561 0.58244,4.01948 0.11155,0.36306 0.63038,0.42227 0.8125,0.0795 0.63549,-0.92799 0.97452,-2.02336 1.57543,-2.9735 0.26088,-0.59942 -0.18493,-1.21287 -0.41304,-1.74939 -0.63377,-1.17051 -1.41631,-2.30284 -1.6271,-3.64899 -0.0481,-0.11941 -0.19404,-0.12597 -0.25318,-0.0129 z"
           style="display:inline;opacity:1;fill:#ffffff;fill-opacity:1;stroke:none;stroke-width:0.06692261;stroke-linecap:round;stroke-linejoin:round;stroke-miterlimit:4;stroke-dasharray:none;stroke-dashoffset:0;stroke-opacity:1;paint-order:normal" />
        <path
           id="path6270-4"
           d="m 788.30492,106.80664 c -0.46171,0.22833 -0.63728,0.79623 -0.91991,1.19814 -0.3535,0.73114 -0.85497,1.35179 -1.2883,2.03205 -0.37958,0.60764 -0.38001,1.38642 -0.20413,2.05895 0.45883,1.16934 1.66946,1.85378 2.86206,2.04772 0.60681,0.19813 1.27627,0.44089 1.89946,0.15739 0.91657,-0.45173 1.08045,-1.60589 1.15515,-2.51909 -0.0198,-0.9359 0.58215,-1.83127 0.27125,-2.77554 -0.38901,-1.00736 -1.52796,-1.36138 -2.4391,-1.73869 -0.4456,-0.1463 -0.88313,-0.35921 -1.33648,-0.46093 z"
           style="display:inline;opacity:1;fill:#ffffff;fill-opacity:1;stroke:none;stroke-width:0.06692261;stroke-linecap:round;stroke-linejoin:round;stroke-miterlimit:4;stroke-dasharray:none;stroke-dashoffset:0;stroke-opacity:1;paint-order:normal" />
        <path
           id="path6272-7"
           d="m 793.66911,108.81364 c -0.39227,0.11007 -0.34048,0.6564 -0.49949,0.95771 -0.45127,1.40967 -0.52248,2.92454 -0.348,4.38624 0.0659,0.64052 0.77263,0.79734 1.30542,0.79842 1.43393,0.0644 3.01884,-0.0404 4.15595,-1.02422 0.71247,-0.54312 0.83785,-1.54621 0.5445,-2.34732 -0.21808,-0.70963 0.12283,-1.62863 -0.52553,-2.16908 -0.60263,-0.51966 -1.47537,-0.30745 -2.20093,-0.35915 -0.79941,-0.0206 -1.59924,0.1203 -2.34018,-0.23647 -0.0302,-0.006 -0.0611,-0.008 -0.0917,-0.006 z"
           style="display:inline;opacity:1;fill:#ffffff;fill-opacity:1;stroke:none;stroke-width:0.06692261;stroke-linecap:round;stroke-linejoin:round;stroke-miterlimit:4;stroke-dasharray:none;stroke-dashoffset:0;stroke-opacity:1;paint-order:normal" />
        <path
           id="path6274-5"
           d="m 803.5633,106.97107 c -0.68976,0.17105 -1.30702,0.59402 -1.99608,0.76765 -0.778,0.26247 -1.79378,0.50037 -2.1017,1.36698 -0.18719,0.70779 0.21056,1.39705 0.23608,2.10384 0.11124,0.84226 0.70942,1.784 1.65112,1.76061 0.82102,0.0569 1.58334,-0.31113 2.21933,-0.7975 0.69847,-0.38908 1.54394,-0.75054 1.80968,-1.57987 0.4201,-1.15572 -0.31669,-2.33957 -1.11515,-3.13063 -0.21107,-0.17794 -0.39058,-0.49871 -0.70328,-0.49108 z"
           style="display:inline;opacity:1;fill:#ffffff;fill-opacity:1;stroke:none;stroke-width:0.06692261;stroke-linecap:round;stroke-linejoin:round;stroke-miterlimit:4;stroke-dasharray:none;stroke-dashoffset:0;stroke-opacity:1;paint-order:normal" />
        <path
           id="path6276-5"
           d="m 807.56086,103.17579 c -0.71045,0.61171 -1.3721,1.28582 -2.07212,1.90965 -0.47387,0.47025 -0.63856,1.25428 -0.2199,1.81529 0.37783,0.43415 0.71286,1.02022 1.2925,1.19358 0.64095,-0.0417 0.8554,-0.79629 0.99065,-1.31782 0.23445,-1.13179 0.36509,-2.31041 0.22785,-3.46184 -0.0201,-0.0963 -0.11476,-0.18655 -0.21898,-0.13886 z"
           style="display:inline;opacity:1;fill:#ffffff;fill-opacity:1;stroke:none;stroke-width:0.06692261;stroke-linecap:round;stroke-linejoin:round;stroke-miterlimit:4;stroke-dasharray:none;stroke-dashoffset:0;stroke-opacity:1;paint-order:normal" />
        <path
           id="path6469-85"
           d="m 815.63006,75.926421 c -0.8339,0.0464 -1.54537,1.14477 -0.9023,1.83783 0.67475,0.91698 1.77793,1.4606 2.36013,2.44153 0.14968,0.52955 -0.58855,0.75162 -0.6537,1.24762 -0.26074,0.64463 0.19925,1.42753 0.91264,1.43383 0.66467,0.12602 1.39199,0.009 2.02793,0.20929 0.16392,0.57235 -0.52696,0.98608 -0.51547,1.5634 -0.22334,0.98829 0.8077,1.96672 1.78283,1.60566 0.30904,-0.0329 0.62076,-0.5218 0.78253,-0.0249 0.51936,1.05625 0.0134,2.56535 1.08004,3.35583 0.62159,0.37447 0.77864,1.34438 1.61766,1.39452 1.16337,0.12151 1.93223,-1.27784 1.44177,-2.27155 -0.0966,-0.2696 -0.44914,-0.48522 -0.0533,-0.68212 0.69987,-0.84428 1.61657,-1.66314 1.81846,-2.78647 0.0601,-0.78321 -0.89515,-1.02184 -1.47334,-0.722 -0.64434,0.12894 -0.99997,0.74201 -1.57853,0.96728 -0.74483,0.0972 -0.96009,-0.84721 -1.15958,-1.38567 -0.25727,-0.75463 -0.21303,-1.56172 -0.0925,-2.32893 -0.0727,-0.77957 -0.98944,-0.39009 -1.49327,-0.63287 -0.22178,-0.0704 -0.77538,-0.23261 -0.33442,-0.44866 0.61419,-0.32383 1.41345,-0.93733 1.01987,-1.72636 -0.52863,-0.86247 -1.79473,-0.99143 -2.68053,-0.68398 -0.35973,0.19142 -0.60536,-0.44751 -0.92353,-0.59926 -0.88178,-0.71441 -1.79437,-1.58234 -2.95312,-1.76456 z"
           style="display:inline;opacity:1;fill:#ffcc00;fill-opacity:1;stroke:none;stroke-width:0.09464285;stroke-linecap:round;stroke-linejoin:round;stroke-miterlimit:4;stroke-dasharray:none;stroke-dashoffset:0;stroke-opacity:1;paint-order:normal" />
        <path
           id="rect4961-7"
           d="m 786.76612,69.486951 c -1.59581,0.85976 -1.12674,3.45861 -1.73715,5.1062 -0.53218,1.41859 0.57535,2.76177 0.87332,4.11111 1.21999,0.56763 2.9785,1.0535 1.05108,2.00613 -2.86379,2.38819 -5.15649,5.45316 -6.58211,8.89727 -1.25136,2.83459 -3.05119,5.54585 -3.45118,8.6641 -0.86996,3.320609 -1.05138,6.756349 -1.51472,10.144399 -0.0737,2.31649 1.31537,4.43412 2.90174,6.01815 -1.61663,1.85617 -2.69034,4.17925 -2.97614,6.62645 0.78984,3.07699 4.88687,3.26908 6.95267,1.4209 1.15547,-0.2832 3.84635,-4.15464 2.90152,-0.91202 -0.52147,3.00329 -1.91949,5.98076 -1.52403,9.06319 1.35423,2.61666 1.43441,-2.30792 1.60839,-3.37079 0.27839,-2.55883 1.13194,-4.9993 2.06061,-7.27279 3.02488,0.42628 6.17079,0.97368 9.28448,0.4886 2.63749,-0.5248 6.11568,-1.188 6.24284,2.52242 0.77814,2.50071 1.89231,5.16668 3.98695,6.8332 2.50339,-0.23517 -1.97067,-3.57341 -1.96127,-5.2145 0.06,-1.26137 -2.86265,-6.02565 0.14015,-3.78697 1.72226,1.3352 4.6586,2.85574 6.32499,0.63704 0.33312,-1.2188 -0.0366,-2.75128 0.0504,-4.06578 -0.35686,-2.78428 2.08314,-4.8304 2.91293,-7.33632 0.96065,-2.46451 1.66847,-5.07741 2.04739,-7.6906 0.19039,-3.016529 0.84895,-6.210569 -0.61308,-9.026379 -0.92156,-3.33434 -1.9542,-6.6208 -3.25035,-9.80936 -1.18517,-2.65253 -3.6664,-4.10195 -5.96263,-5.6308 -2.83782,-1.13529 -6.08951,-0.89167 -9.08119,-1.35304 -2.99971,-0.40334 -5.4078,1.74555 -8.25196,1.69481 -3.4363,-0.16184 -3.12494,-4.37932 -1.94397,-6.60774 0.76435,-0.684 0.98411,-2.33901 -0.48965,-2.15688 z m 28.89888,6.93535 c -2.60897,1.2354 4.13322,2.90735 1.38487,4.97085 -0.83503,2.17272 3.40362,-0.31936 2.92125,2.33124 -1.45927,1.47432 0.17479,2.8629 1.21712,1.4895 2.0226,1.2314 0.15044,3.51565 2.16152,4.22512 0.6247,2.31038 2.99142,0.0191 1.09247,-1.19223 1.0009,-0.77357 4.08298,-4.36227 1.02441,-2.9596 -2.12375,2.68352 -3.6817,-1.74491 -2.9535,-3.49091 -0.90108,0.21367 -3.41679,-0.56904 -1.30105,-1.8161 1.79779,-0.72634 -1.11964,-2.02434 -1.8577,-0.83846 -1.07064,-0.98498 -2.23646,-2.18587 -3.68939,-2.71941 z m -19.00391,1.64927 c 2.66741,0.58397 5.38861,0.57425 8.09574,0.74046 2.05197,1.39726 4.60926,2.37231 5.72718,4.77592 1.96252,2.48766 2.28818,5.83479 3.55633,8.68173 0.96412,2.95254 1.45206,5.96877 0.94349,9.074459 -0.36968,3.39774 -1.0009,6.81634 -2.65609,9.85249 -0.37351,1.41213 -2.1737,3.62006 -2.4439,0.81004 -0.4226,-3.40719 -1.99109,1.5378 -0.46484,2.40134 -0.18752,1.85663 -2.88602,2.61396 -4.42269,3.50925 -0.80269,0.84858 -3.04833,-2.20275 -2.49843,0.11507 -1.43886,1.06403 -5.76215,0.84838 -8.26495,1.21334 -2.65409,0.68408 -4.97801,-0.82417 -7.4368,-1.51081 -2.32709,-0.59373 -4.34056,-1.99792 -6.17617,-3.50037 1.80615,-1.24492 -0.39759,-1.94764 -1.56591,-1.21615 -2.40891,-2.30011 -2.94087,-5.47249 -1.97075,-8.57433 0.61493,-3.15621 1.15758,-6.364319 2.12745,-9.424769 2.40892,-3.98355 3.59179,-8.79301 7.15184,-12.00966 2.27787,-2.44535 5.34275,-3.89703 8.49978,-4.81725 0.59476,-0.0924 1.19773,-0.11822 1.79872,-0.12076 z m -5.96206,7.41684 c -0.9631,0.90426 -2.41466,5.96295 0.004,3.58688 -0.29517,-1.06142 1.76361,-3.41791 -0.004,-3.58688 z m 13.92372,1.17596 c -2.11677,0.41064 -0.4039,6.05069 0.465,2.63155 -0.0793,-0.72584 0.54606,-2.36059 -0.465,-2.63155 z m -8.75282,7.54089 c -2.10922,0.80917 -1.07053,5.55787 0.65692,3.49601 -0.63665,-1.26856 0.25537,-2.30681 -0.65692,-3.49601 z m -11.00738,4.40368 c -2.36728,0.96784 -1.99336,4.318679 -2.28605,6.481199 -0.0894,3.41493 0.29982,7.66065 3.72213,9.40114 2.13719,0.81417 4.78476,1.84353 6.70607,1.9928 2.64973,-0.42715 5.36552,-0.80685 7.92317,-1.60699 2.19569,-1.39093 4.78392,-2.42374 6.8324,-4.20163 0.97994,-3.4336 1.74884,-6.99803 1.81565,-10.59934 -1.44046,-2.637429 -2.67281,2.61866 -4.17708,3.42393 -2.3027,2.39634 -5.24485,3.93504 -8.62349,4.24033 -3.22685,0.12255 -6.42681,-1.39916 -8.97457,-3.29737 -1.73722,-1.47684 -1.98061,-4.590089 -2.93823,-5.834069 z m -0.25503,2.762949 c 0.061,1.91292 2.06966,3.62396 2.09439,5.15614 -0.89647,0.92456 -1.91715,5.30997 -2.43199,2.08037 -0.42196,-2.30086 -0.65825,-5.10112 0.3376,-7.23651 z m 23.03313,1.9045 c 0.17695,1.31893 -0.1582,6.36697 -1.7785,4.06622 -1.16863,-1.05627 -0.71979,-1.95688 0.40314,-2.71906 0.45846,-0.44905 0.91691,-0.8981 1.37536,-1.34716 z m -4.01286,3.81286 c 1.83442,1.45716 2.76976,3.84656 -0.0768,4.86063 -1.7114,1.50214 -3.77295,1.15988 -3.74352,-1.39254 -0.8607,-2.1389 0.71715,-2.31981 2.48205,-2.86747 0.43932,-0.2142 0.87263,-0.44632 1.3383,-0.60062 z m -15.34764,-0.14821 c 2.10734,0.83904 4.70352,1.18949 3.40222,4.03444 0.004,1.90648 -0.34832,4.11837 -2.82395,3.01035 -2.59125,-0.31794 -4.03335,-2.72441 -1.97177,-4.73638 0.44722,-0.7741 0.80956,-1.62585 1.3935,-2.30841 z m 5.35555,1.96419 c 1.85801,1.14726 5.44601,-1.18309 4.90556,2.38767 1.52501,3.1467 -3.18461,4.01725 -5.34107,3.33582 -0.78071,-1.22552 -0.1489,-4.32308 0.43551,-5.72349 z m -14.29579,6.52084 c 1.37268,1.32838 4.61508,2.34152 4.9815,3.70207 -1.92664,1.47578 -5.22728,5.0568 -7.30671,1.92898 -0.67587,-1.97528 1.08861,-4.29431 2.32521,-5.63105 z m 30.56435,1.32433 c 0.23631,1.65785 0.71072,5.72916 -1.97241,4.10166 -1.25085,-0.56039 -3.78009,-1.90344 -0.97231,-2.24406 1.08615,-0.45887 1.91359,-1.26781 2.94472,-1.8576 z"
           style="display:inline;opacity:1;fill:#502c15;fill-opacity:1;stroke:none;stroke-width:0.60297376;stroke-linecap:round;stroke-linejoin:round;stroke-miterlimit:4;stroke-dasharray:none;stroke-dashoffset:0;stroke-opacity:1;paint-order:normal" />
      </g>
    </g>
  </g>
</svg>
