<svg xmlns="http://www.w3.org/2000/svg" viewBox="0 0 60 60" height="60mm" width="60mm"><path d="M786.82 68.627c-1.022.174-1.642 1.229-1.914 2.153-.34 1.375-.432 2.8-.796 4.171-.184 1.436.61 2.787 1.071 4.056.33.484.996.681 1.424.954-2.934 2.321-5.216 5.406-6.764 8.802-1.153 2.504-2.525 4.93-3.361 7.567-1.008 4.018-1.52 8.144-1.86 12.266-.07 2.232 1.17 4.253 2.578 5.887-1.41 1.896-2.439 4.152-2.677 6.518.197 1.824 1.913 3.18 3.665 3.421 1.785.313 3.563-.402 4.975-1.457.377-.257.724-.556 1.064-.859-.604 2.852-1.78 5.702-1.351 8.667.249.774-.184 1.515-.266 2.284-.09.681-.61 1.698.213 2.126.981.278 2.03-.018 3.035.02 8.188-.359 16.383-.595 24.566-1.032.733-.17.8-1.086.313-1.553-.735-1.083-1.66-2.05-2.354-3.147.08-1.242-.972-2.148-1.597-3.107-.53-.701-1.08-1.439-1.17-2.341-.213-.775-.49-1.529-.755-2.287 1.589 1.093 3.637 2.153 5.594 1.425.724-.337 1.55-.846 1.78-1.641.057-1.888-.103-3.794.096-5.673.616-1.872 1.947-3.404 2.634-5.25 1.88-4.459 2.675-9.351 2.448-14.176-.086-1.935-1.054-3.663-1.513-5.514-.904-2.93-1.756-5.91-3.154-8.651-1.36-2.217-3.612-3.673-5.78-5.005-2.287-1.089-4.893-1.03-7.357-1.322-1.96-.182-4.009-.44-5.889.32-1.577.466-3.144 1.293-4.84 1.11-1.191-.15-1.685-1.488-1.568-2.548-.04-1.322.553-2.532 1.198-3.644.515-1.074-.24-2.516-1.476-2.535a1.363 1.363 0 0 0-.212-.005zm9.403 10.302c1.663.14 3.309.478 4.982.533 1.115.103 2.266.072 3.359.237 1.553 1.01 3.299 1.837 4.544 3.263.989 1.44 1.94 2.935 2.426 4.629.847 2.552 1.864 5.058 2.425 7.698.386 1.915.534 3.876.205 5.848-.339 2.843-.82 5.742-1.976 8.408-.43.925-.75 1.934-1.395 2.737-.205-.804-.183-2.03-1.19-2.262-1.009-.161-1.453.987-1.562 1.796-.15.954-.168 2.029.425 2.846-.648 1.118-1.994 1.488-3.056 2.093-.432.161-.897.608-1.325.193-.635-.379-1.583-.987-2.223-.284-.36.256-.02.903-.499.964-2.046.574-4.209.453-6.306.707-1.232.099-2.487.466-3.7.028-1.862-.545-3.687-1.218-5.517-1.86a14.985 14.985 0 0 1-3.95-2.348c.561-.795.05-1.929-.876-2.127-.563-.192-1.197-.15-1.75-.018-1.126-1.21-1.782-2.875-1.74-4.503-.09-1.769.554-3.533.83-5.284.55-2.42.874-4.926 1.85-7.223 1.743-3.133 2.926-6.523 5.006-9.451 2.183-2.854 5.21-5.072 8.65-6.148.762-.257 1.55-.498 2.363-.472zm-16.707 37.686c1.194.835 2.543 1.432 3.687 2.34-1.131.884-2.206 1.97-3.608 2.4-.68.212-1.457-.023-1.78-.689-.32-.95.24-1.956.682-2.78.278-.466.599-.905.948-1.32zm29.69 1.817c-.03.635.112 1.37-.192 1.945-.666-.18-1.462-.621-1.946-.976.775-.26 1.46-.72 2.132-1.174l.006.205zm-21.144 2.507c3.173.455 6.427.857 9.604.197 1.143-.14 2.463-.424 3.563.12.935.617.668 1.881 1.087 2.789.846 2.357 1.944 4.796 3.967 6.376.782.257 1.225.99 1.74 1.587.58.502.233.59-.403.539-7.76.329-15.523.606-23.282.95.127-.445.144-1.006.371-1.368 1-.44.982-1.724 1.15-2.646.218-2.173.51-4.38 1.236-6.432.233-.72.498-1.43.772-2.135l.195.023zM815.58 75.153c-1.492-.044-2.493 1.94-1.494 3.09.568.816 1.472 1.342 2.068 2.116-.773.83-.814 2.317.17 3 .58.377 1.301.368 1.965.437-.706 1.268.097 3.087 1.553 3.306.317.048.642.037.955-.033.145 1.133.27 2.4 1.195 3.2.69.624 1.286 1.762 2.389 1.523 1.615-.056 2.595-2.014 1.92-3.412.807-.977 1.872-2.048 1.807-3.41-.105-1.103-1.392-1.586-2.346-1.277-.598.12-1.09.578-1.575.855-.77-1.107.062-2.64-.79-3.695-.083-.273-.8-.236-.574-.477.743-1.024-.011-2.51-1.154-2.837-.676-.258-1.427-.264-2.128-.105-1.132-.985-2.37-2.214-3.961-2.28z" style="display:inline;opacity:1;fill:#fff;fill-opacity:1;stroke:none;stroke-width:.09464285;stroke-linecap:round;stroke-linejoin:round;stroke-miterlimit:4;stroke-dasharray:none;stroke-dashoffset:0;stroke-opacity:1;paint-order:normal" transform="matrix(.93987 0 0 .93987 -719.01 -62.552)"/><path d="M796.133 77.95c-2.395.066-4.624 1.191-6.663 2.353-2.92 1.84-5.345 4.465-6.833 7.59-1.341 2.718-2.85 5.374-3.919 8.215-.934 3.35-1.53 6.784-2.206 10.19-.307 2.488.576 5.244 2.515 6.854.6-.112 1.685-.56 2.003.207.003.524-1.1.91-.243 1.268 1.637 1.283 3.386 2.454 5.398 3.057 1.867.622 3.685 1.5 5.632 1.826 2.365.109 4.699-.365 7.057-.452 1.233-.199 2.665-.115 3.705-.896.269-.206-.266-.97.279-.69.726.276 1.53 1.112 2.333.511 1.424-.767 3.154-1.287 4.113-2.671.167-.36.458-1.09-.06-1.267-.363-.958-.343-2.144.192-3.036.399.8.116 2.115 1.071 2.546.91-.004 1.305-1.088 1.729-1.73 2.157-4.153 3.061-8.882 3.082-13.536 0-3.922-1.722-7.521-2.866-11.192-.977-2.687-2.475-5.41-5.046-6.861-.963-.517-1.83-1.35-2.877-1.615-2.713-.056-5.386-.462-8.085-.67l-.311-.001zm-5.264 7.797c.632.13.206.994.114 1.385-.35.624-.286 1.408-.647 2.005-.157.14-.667.606-.697.155a5.538 5.538 0 0 1 1.122-3.517.124.124 0 0 1 .108-.028zm13.706 1.16c.689.208.316 1.182.345 1.692-.127.477.003 1.327-.558 1.537-.649-.666-.555-1.764-.406-2.625.097-.263.311-.59.62-.603zm-8.76 7.576c.553.938.084 2.07.422 3.072-.084.528-.895.637-1.057.078-.436-.97-.437-2.598.635-3.15zm-11.051 4.385c1.166 1.972 1.287 4.656 3.364 6.021 2.132 1.448 4.54 2.768 7.16 2.936 1.768.126 3.56-.052 5.189-.794 3.072-1.174 5.634-3.493 7.198-6.376.329-.383.673-1.258 1.287-1.024.79.653.234 1.807.278 2.667-.255 2.794-.93 5.537-1.606 8.26-2.196 1.633-4.597 2.989-7.057 4.173-2.366.776-4.873 1.126-7.318 1.48-2.058.017-3.993-.844-5.9-1.537-1.352-.458-2.575-1.302-3.272-2.578-1.392-2.257-1.29-5.017-1.252-7.57.176-1.825.002-4.019 1.517-5.33.13-.105.268-.27.412-.328zM787.28 119.845c-.622 1.04-.935 2.323-1.345 3.487-.82 2.4-.85 4.959-1.346 7.418-.014.488-.624.385-.681.841-.23.91-.455 1.85-.568 2.764 4.603-.14 9.255-.39 13.878-.551 4.183-.174 8.367-.32 12.549-.53.336-.313-.353-.722-.471-1.029-.899-1.097-1.73-2.289-2.89-3.119-1.811-1.758-2.804-4.185-3.42-6.585-.082-1.258-.998-2.441-2.307-2.549-2.239-.309-4.423.588-6.661.428-2.268.047-4.49-.345-6.738-.575z" style="display:inline;opacity:1;fill:#f9f9f9;fill-opacity:1;stroke:none;stroke-width:.13384521;stroke-linecap:round;stroke-linejoin:round;stroke-miterlimit:4;stroke-dasharray:none;stroke-dashoffset:0;stroke-opacity:1;paint-order:normal" transform="matrix(.93987 0 0 .93987 -719.01 -62.552)"/><path d="M784.453 101.286c-.565 1.353-.763 2.828-.677 4.286.08 1.35.169 2.726.583 4.02.111.363.63.422.812.08.636-.929.975-2.024 1.576-2.974.26-.6-.185-1.213-.413-1.75-.634-1.17-1.417-2.303-1.627-3.649-.049-.12-.194-.126-.254-.013zM788.305 106.807c-.462.228-.637.796-.92 1.198-.353.73-.855 1.352-1.288 2.032-.38.607-.38 1.386-.204 2.059.458 1.17 1.669 1.854 2.862 2.047.606.199 1.276.441 1.9.158.916-.452 1.08-1.606 1.154-2.52-.02-.935.582-1.83.272-2.775-.39-1.007-1.528-1.361-2.44-1.738-.445-.147-.883-.36-1.336-.461zM793.67 108.814c-.393.11-.341.656-.5.957-.452 1.41-.523 2.925-.348 4.387.066.64.772.797 1.305.798 1.434.064 3.019-.04 4.156-1.024.712-.543.838-1.546.544-2.348-.218-.71.123-1.628-.525-2.169-.603-.52-1.475-.307-2.201-.359-.8-.02-1.6.12-2.34-.236a.353.353 0 0 0-.092-.006zM803.563 106.971c-.69.171-1.307.594-1.996.768-.778.262-1.794.5-2.101 1.367-.188.707.21 1.397.236 2.104.11.842.709 1.784 1.65 1.76.822.057 1.584-.311 2.22-.797.699-.39 1.544-.75 1.81-1.58.42-1.156-.317-2.34-1.115-3.13-.211-.179-.391-.5-.704-.492zM807.56 103.176c-.71.612-1.371 1.286-2.071 1.91-.474.47-.639 1.254-.22 1.815.378.434.713 1.02 1.292 1.193.641-.041.856-.796.991-1.318.234-1.131.365-2.31.228-3.461-.02-.097-.115-.187-.22-.14z" style="display:inline;opacity:1;fill:#fff;fill-opacity:1;stroke:none;stroke-width:.06692261;stroke-linecap:round;stroke-linejoin:round;stroke-miterlimit:4;stroke-dasharray:none;stroke-dashoffset:0;stroke-opacity:1;paint-order:normal" transform="matrix(.93987 0 0 .93987 -719.01 -62.552)"/><path d="M815.63 75.926c-.834.047-1.545 1.145-.902 1.838.675.917 1.778 1.46 2.36 2.442.15.53-.589.751-.654 1.247-.26.645.2 1.428.913 1.434.665.126 1.392.01 2.028.21.164.572-.527.986-.516 1.563-.223.988.808 1.967 1.783 1.606.31-.033.62-.522.783-.025.519 1.056.013 2.565 1.08 3.356.621.374.778 1.344 1.617 1.394 1.164.122 1.933-1.278 1.442-2.272-.096-.27-.449-.485-.053-.682.7-.844 1.616-1.663 1.818-2.786.06-.783-.895-1.022-1.473-.722-.644.129-1 .742-1.579.967-.744.097-.96-.847-1.16-1.385-.256-.755-.212-1.562-.092-2.33-.072-.779-.99-.39-1.493-.632-.222-.07-.775-.233-.334-.449.614-.324 1.413-.937 1.02-1.726-.53-.863-1.795-.992-2.681-.684-.36.191-.605-.448-.924-.6-.881-.714-1.794-1.582-2.953-1.764z" style="display:inline;opacity:1;fill:#fc0;fill-opacity:1;stroke:none;stroke-width:.09464285;stroke-linecap:round;stroke-linejoin:round;stroke-miterlimit:4;stroke-dasharray:none;stroke-dashoffset:0;stroke-opacity:1;paint-order:normal" transform="matrix(.93987 0 0 .93987 -719.01 -62.552)"/><path d="M786.766 69.487c-1.596.86-1.127 3.459-1.737 5.106-.532 1.419.575 2.762.873 4.111 1.22.568 2.979 1.054 1.051 2.006-2.863 2.389-5.156 5.454-6.582 8.898-1.251 2.834-3.05 5.546-3.45 8.664-.87 3.32-1.052 6.756-1.516 10.144-.073 2.317 1.316 4.434 2.902 6.018-1.617 1.856-2.69 4.18-2.976 6.627.79 3.077 4.887 3.269 6.953 1.42 1.155-.283 3.846-4.154 2.901-.911-.521 3.003-1.92 5.98-1.524 9.063 1.354 2.616 1.435-2.308 1.609-3.371.278-2.559 1.131-5 2.06-7.273 3.025.427 6.17.974 9.285.489 2.637-.525 6.115-1.188 6.242 2.522.779 2.501 1.893 5.167 3.987 6.833 2.504-.235-1.97-3.573-1.96-5.214.06-1.261-2.864-6.026.14-3.787 1.722 1.335 4.658 2.856 6.324.637.333-1.219-.036-2.751.05-4.066-.356-2.784 2.084-4.83 2.914-7.336a35.276 35.276 0 0 0 2.047-7.69c.19-3.017.849-6.211-.613-9.027-.922-3.334-1.954-6.62-3.25-9.81-1.186-2.652-3.667-4.101-5.963-5.63-2.838-1.135-6.09-.892-9.081-1.353-3-.404-5.408 1.745-8.252 1.695-3.437-.162-3.125-4.38-1.944-6.608.764-.684.984-2.34-.49-2.157zm28.899 6.935c-2.609 1.236 4.133 2.908 1.385 4.971-.835 2.173 3.403-.32 2.921 2.331-1.46 1.475.175 2.863 1.217 1.49 2.023 1.231.15 3.516 2.162 4.225.624 2.31 2.991.02 1.092-1.192 1.001-.774 4.083-4.362 1.025-2.96-2.124 2.684-3.682-1.745-2.954-3.49-.9.213-3.417-.57-1.3-1.817 1.797-.726-1.12-2.024-1.859-.838-1.07-.985-2.236-2.186-3.689-2.72zm-19.004 1.65c2.667.584 5.389.574 8.096.74 2.052 1.397 4.61 2.372 5.727 4.776 1.963 2.488 2.288 5.835 3.556 8.682.964 2.952 1.452 5.968.944 9.074-.37 3.398-1.001 6.816-2.656 9.853-.374 1.412-2.174 3.62-2.444.81-.423-3.408-1.991 1.537-.465 2.401-.188 1.857-2.886 2.614-4.423 3.51-.802.848-3.048-2.203-2.498.114-1.439 1.064-5.762.849-8.265 1.214-2.654.684-4.978-.824-7.437-1.511-2.327-.594-4.34-1.998-6.176-3.5 1.806-1.245-.398-1.948-1.566-1.217-2.409-2.3-2.94-5.472-1.97-8.574.614-3.156 1.157-6.364 2.127-9.425 2.409-3.983 3.592-8.793 7.152-12.01 2.277-2.445 5.342-3.896 8.5-4.817a12.044 12.044 0 0 1 1.798-.12zm-5.962 7.416c-.963.905-2.415 5.963.004 3.587-.295-1.061 1.764-3.418-.004-3.587zm13.924 1.176c-2.117.411-.404 6.051.465 2.632-.08-.726.546-2.36-.465-2.632zm-8.753 7.541c-2.11.81-1.07 5.558.657 3.496-.637-1.268.255-2.307-.657-3.496zm-11.007 4.404c-2.368.968-1.994 4.319-2.287 6.481-.089 3.415.3 7.66 3.723 9.401 2.137.814 4.784 1.844 6.706 1.993 2.65-.427 5.365-.807 7.923-1.607 2.196-1.39 4.784-2.424 6.832-4.202.98-3.433 1.75-6.998 1.816-10.599-1.44-2.637-2.673 2.619-4.177 3.424-2.303 2.396-5.245 3.935-8.624 4.24-3.227.123-6.426-1.399-8.974-3.297-1.737-1.477-1.98-4.59-2.938-5.834zm-.255 2.763c.06 1.913 2.07 3.624 2.094 5.156-.897.925-1.917 5.31-2.432 2.08-.422-2.3-.658-5.1.338-7.236zm23.033 1.904c.177 1.32-.159 6.367-1.779 4.067-1.168-1.057-.72-1.957.403-2.72l1.376-1.347zm-4.013 3.813c1.834 1.457 2.77 3.847-.077 4.86-1.711 1.503-3.773 1.16-3.744-1.392-.86-2.139.718-2.32 2.483-2.867.439-.214.872-.446 1.338-.6zm-15.348-.148c2.107.84 4.704 1.19 3.402 4.034.004 1.907-.348 4.119-2.824 3.01-2.59-.317-4.033-2.724-1.971-4.736.447-.774.81-1.625 1.393-2.308zm5.356 1.964c1.858 1.147 5.446-1.183 4.905 2.388 1.525 3.147-3.184 4.017-5.34 3.336-.782-1.226-.15-4.323.435-5.724zm-14.296 6.521c1.373 1.328 4.615 2.342 4.981 3.702-1.926 1.476-5.227 5.057-7.306 1.93-.676-1.976 1.088-4.295 2.325-5.632zm30.564 1.324c.237 1.658.711 5.73-1.972 4.102-1.251-.56-3.78-1.903-.972-2.244 1.086-.459 1.913-1.268 2.944-1.858z" style="display:inline;opacity:1;fill:#502c15;fill-opacity:1;stroke:none;stroke-width:.60297376;stroke-linecap:round;stroke-linejoin:round;stroke-miterlimit:4;stroke-dasharray:none;stroke-dashoffset:0;stroke-opacity:1;paint-order:normal" transform="matrix(.93987 0 0 .93987 -719.01 -62.552)"/></svg>